# xmcd
#
# Track frame offsets: 
#        150
#        17065
#        33974
#        51050
#        69654
#        92392
#        113723
#        134395
#        152285
#        167232
#        185626
#
# Disc length: 2858 seconds
#
# Revision: 0
# Processed by: cddbd v1.5.2PL0 Copyright (c) Steve Scherf et al.
# Submitted via: ExactAudioCopy v0.99pb3
#
DISCID=850b280b
DTITLE=Matt Powell - New Kind Of Something
DYEAR=2007
DGENRE=Country
TTITLE0=Roadbound Man
TTITLE1=Missing You
TTITLE2=Dandelion
TTITLE3=Soap And Water
TTITLE4=Heavy Enough
TTITLE5=When You Danced
TTITLE6=Where Do You Go?
TTITLE7=Trouble Nowadays
TTITLE8=The Closest Thing To Home
TTITLE9=My Wicked Toungue
TTITLE10=Good To Not Be Gone
EXTD=
EXTT0=
EXTT1=
EXTT2=
EXTT3=
EXTT4=
EXTT5=
EXTT6=
EXTT7=
EXTT8=
EXTT9=
EXTT10=
PLAYORDER=
